<svg xmlns="http://www.w3.org/2000/svg" width="120" height="20" viewBox="0 0 120 20">
    <g fill="none" fill-rule="evenodd">
        <g fill="#FFB44D">
            <path d="M4.165 12.268c.222.207.323.507.271.802l-.947 5.153c-.059.33.08.663.356.862.277.2.646.23.953.08l4.75-2.473c.273-.142.6-.142.874 0l4.75 2.472c.309.163.687.139.971-.062.284-.201.425-.543.36-.88l-.938-5.152c-.053-.295.049-.595.27-.802l3.886-3.626c.252-.238.343-.594.233-.918-.11-.325-.4-.56-.748-.605l-5.331-.713c-.304-.04-.567-.225-.703-.492l-2.349-4.716C10.67.893 10.35.7 10 .7s-.669.193-.823.498L6.828 5.914c-.139.272-.41.457-.72.492L.791 7.12c-.348.047-.637.282-.746.606-.109.324-.017.68.235.917l3.885 3.626z" transform="translate(75)"/>
            <path d="M4.165 12.268c.222.207.323.507.271.802l-.947 5.153c-.059.33.08.663.356.862.277.2.646.23.953.08l4.75-2.473c.273-.142.6-.142.874 0l4.75 2.472c.309.163.687.139.971-.062.284-.201.425-.543.36-.88l-.938-5.152c-.053-.295.049-.595.27-.802l3.886-3.626c.252-.238.343-.594.233-.918-.11-.325-.4-.56-.748-.605l-5.331-.713c-.304-.04-.567-.225-.703-.492l-2.349-4.716C10.67.893 10.35.7 10 .7s-.669.193-.823.498L6.828 5.914c-.139.272-.41.457-.72.492L.791 7.12c-.348.047-.637.282-.746.606-.109.324-.017.68.235.917l3.885 3.626z" transform="translate(50)"/>
            <path d="M4.165 12.268c.222.207.323.507.271.802l-.947 5.153c-.059.33.08.663.356.862.277.2.646.23.953.08l4.75-2.473c.273-.142.6-.142.874 0l4.75 2.472c.309.163.687.139.971-.062.284-.201.425-.543.36-.88l-.938-5.152c-.053-.295.049-.595.27-.802l3.886-3.626c.252-.238.343-.594.233-.918-.11-.325-.4-.56-.748-.605l-5.331-.713c-.304-.04-.567-.225-.703-.492l-2.349-4.716C10.67.893 10.35.7 10 .7s-.669.193-.823.498L6.828 5.914c-.139.272-.41.457-.72.492L.791 7.12c-.348.047-.637.282-.746.606-.109.324-.017.68.235.917l3.885 3.626z" transform="translate(25)"/>
            <path d="M4.165 12.268c.222.207.323.507.271.802l-.947 5.153c-.059.33.08.663.356.862.277.2.646.23.953.08l4.75-2.473c.273-.142.6-.142.874 0l4.75 2.472c.309.163.687.139.971-.062.284-.201.425-.543.36-.88l-.938-5.152c-.053-.295.049-.595.27-.802l3.886-3.626c.252-.238.343-.594.233-.918-.11-.325-.4-.56-.748-.605l-5.331-.713c-.304-.04-.567-.225-.703-.492l-2.349-4.716C10.67.893 10.35.7 10 .7s-.669.193-.823.498L6.828 5.914c-.139.272-.41.457-.72.492L.791 7.12c-.348.047-.637.282-.746.606-.109.324-.017.68.235.917l3.885 3.626z"/>
            <path d="M9.999.7v15.886c-.154-.003-.31.033-.45.106l-4.75 2.472c-.308.151-.677.12-.954-.079-.277-.199-.415-.532-.356-.862l.947-5.153c.052-.295-.049-.595-.27-.802L.28 8.642c-.252-.237-.344-.593-.235-.917.109-.324.398-.559.746-.606l5.317-.713c.31-.035.581-.22.72-.492l2.35-4.716C9.33.893 9.65.7 10 .7H10z" transform="translate(100)"/>
        </g>
    </g>
</svg>
