<svg xmlns="http://www.w3.org/2000/svg" xmlns:xlink="http://www.w3.org/1999/xlink" width="40" height="40" viewBox="0 0 40 40">
    <defs>
        <filter id="of4obfeppa" width="261.1%" height="261.1%" x="-80.6%" y="-69.4%" filterUnits="objectBoundingBox">
            <feMorphology in="SourceAlpha" operator="dilate" radius="1.5" result="shadowSpreadOuter1"/>
            <feOffset dy="4" in="shadowSpreadOuter1" result="shadowOffsetOuter1"/>
            <feMorphology in="SourceAlpha" radius="1.5" result="shadowInner"/>
            <feOffset dy="4" in="shadowInner" result="shadowInner"/>
            <feComposite in="shadowOffsetOuter1" in2="shadowInner" operator="out" result="shadowOffsetOuter1"/>
            <feGaussianBlur in="shadowOffsetOuter1" result="shadowBlurOuter1" stdDeviation="8.5"/>
            <feColorMatrix in="shadowBlurOuter1" values="0 0 0 0 0.232931386 0 0 0 0 0.232931386 0 0 0 0 0.232931386 0 0 0 0.0726617133 0"/>
        </filter>
        <filter id="f4u18ajsbc" width="1155.6%" height="675.8%" x="-527.8%" y="-247.5%" filterUnits="objectBoundingBox">
            <feMorphology in="SourceAlpha" operator="dilate" radius="1" result="shadowSpreadOuter1"/>
            <feOffset dy="4" in="shadowSpreadOuter1" result="shadowOffsetOuter1"/>
            <feMorphology in="SourceAlpha" radius="1" result="shadowInner"/>
            <feOffset dy="4" in="shadowInner" result="shadowInner"/>
            <feComposite in="shadowOffsetOuter1" in2="shadowInner" operator="out" result="shadowOffsetOuter1"/>
            <feGaussianBlur in="shadowOffsetOuter1" result="shadowBlurOuter1" stdDeviation="8.5"/>
            <feColorMatrix in="shadowBlurOuter1" values="0 0 0 0 0.232931386 0 0 0 0 0.232931386 0 0 0 0 0.232931386 0 0 0 0.0726617133 0"/>
        </filter>
        <circle id="vn8omzsmvb" cx="18" cy="18" r="18"/>
        <path id="7o4ayikjxd" d="M15.766 23.4c-.12 0-.238-.046-.33-.137-.182-.182-.182-.479 0-.661l4.139-4.152-4.138-4.152c-.183-.182-.183-.478 0-.661.182-.183.476-.183.659 0l4.467 4.482c.183.183.183.48 0 .662l-4.467 4.482c-.091.091-.21.137-.33.137z"/>
    </defs>
    <g fill="none" fill-rule="evenodd">
        <g>
            <g transform="matrix(-1 0 0 1 38 2)">
                <use fill="#000" filter="url(#of4obfeppa)" xlink:href="#vn8omzsmvb"/>
                <use stroke="#C0CEE5" stroke-width="3" xlink:href="#vn8omzsmvb"/>
            </g>
            <g transform="matrix(-1 0 0 1 38 2)">
                <use fill="#000" filter="url(#f4u18ajsbc)" xlink:href="#7o4ayikjxd"/>
                <use stroke="#BDCEE7" stroke-width="2" xlink:href="#7o4ayikjxd"/>
            </g>
        </g>
    </g>
</svg>
