<svg xmlns="http://www.w3.org/2000/svg" width="235" height="235" viewBox="0 0 235 235">
    <g fill="none" fill-rule="evenodd">
        <g fill="#FFF">
            <g transform="translate(-924 -163) translate(924 163)">
                <ellipse cx="117.5" cy="117.5" opacity=".105" rx="117.5" ry="117"/>
                <circle cx="117.5" cy="118" r="92.5" opacity=".105"/>
                <path fill-rule="nonzero" d="M117.5 50.5C80.22 50.5 50 80.72 50 118s30.22 67.5 67.5 67.5S185 155.28 185 118c-.04-37.263-30.237-67.46-67.5-67.5zm27.752 70.8c-.464.93-1.218 1.684-2.15 2.147v.024l-38.297 19.14c-2.365 1.18-5.24.222-6.422-2.142-.336-.672-.51-1.414-.505-2.165v-38.278c-.001-2.643 2.141-4.786 4.785-4.788.744 0 1.477.173 2.142.505l38.298 19.14c2.366 1.178 3.329 4.051 2.149 6.416z"/>
            </g>
        </g>
    </g>
</svg>
