<svg xmlns="http://www.w3.org/2000/svg" width="75" height="75" viewBox="0 0 75 75">
    <defs>
        <linearGradient id="cbbblp1sca" x1="130.436%" x2="0%" y1="50%" y2="50%">
            <stop offset="0%" stop-color="#96C6FF"/>
            <stop offset="100%" stop-color="#F3F8FF"/>
        </linearGradient>
    </defs>
    <g fill="none" fill-rule="evenodd">
        <g>
            <path fill="url(#cbbblp1sca)" d="M33.25 66.03H2.166C.968 66.03 0 65.05 0 63.837V2.191C0 .981.968 0 2.165 0h43.297c1.196 0 2.165.98 2.165 2.191v44.117c0 1.211-.969 2.191-2.165 2.191-5.97 0-10.824 4.916-10.824 10.957 0 1.288.211 2.495.63 3.59.553 1.445-.506 2.983-2.017 2.983z" transform="translate(7)"/>
            <g fill-rule="nonzero" transform="translate(7) translate(8.636 13.416)">
                <path fill="#1B70F0" d="M36.887 61.294c-8.531 0-15.189-7.018-15.189-15.323 0-8.449 6.815-15.324 15.189-15.324 8.374 0 15.188 6.875 15.188 15.324 0 8.448-6.814 15.323-15.188 15.323z"/>
                <ellipse cx="2.17" cy="2.189" fill="#1B70F0" rx="2.17" ry="2.189"/>
                <ellipse cx="2.17" cy="10.945" fill="#1B70F0" rx="2.17" ry="2.189"/>
                <ellipse cx="2.17" cy="19.702" fill="#1B70F0" rx="2.17" ry="2.189"/>
                <ellipse cx="2.17" cy="28.458" fill="#1B70F0" rx="2.17" ry="2.189"/>
                <path fill="#8BBAFF" d="M28.207 4.378H10.85c-1.2 0-2.17-.979-2.17-2.189S9.65 0 10.85 0h17.358c1.2 0 2.17.98 2.17 2.19s-.97 2.188-2.17 2.188zM28.207 13.102H10.85c-1.2 0-2.17-.98-2.17-2.19s.97-2.188 2.17-2.188h17.358c1.2 0 2.17.979 2.17 2.189s-.97 2.189-2.17 2.189zM28.207 21.842H10.85c-1.2 0-2.17-.98-2.17-2.19s.97-2.188 2.17-2.188h17.358c1.2 0 2.17.979 2.17 2.189s-.97 2.189-2.17 2.189zM19.528 30.562H10.85c-1.2 0-2.17-.98-2.17-2.19s.97-2.188 2.17-2.188h8.68c1.199 0 2.169.979 2.169 2.189s-.97 2.189-2.17 2.189z"/>
            </g>
            <g fill="#8BBAFF" fill-rule="nonzero">
                <path d="M0 30.516h4.336c1.199 0 2.169-.975 2.169-2.18s-.97-2.18-2.169-2.18H0v4.36zM0 21.797h13.01c1.198 0 2.168-.975 2.168-2.18s-.97-2.18-2.169-2.18H0v4.36zM0 13.078h13.01c1.198 0 2.168-.975 2.168-2.18 0-1.204-.97-2.18-2.169-2.18H0v4.36zM0 4.36h13.01c1.198 0 2.168-.976 2.168-2.18 0-1.205-.97-2.18-2.169-2.18H0v4.36z" transform="translate(7) translate(23.813 13.416)"/>
            </g>
            <path fill="#F6FAFF" fill-rule="nonzero" d="M53.039 53.962c-.56-.572-1.435-.613-2.04-.122l-.135.122-7.515 7.68-3.213-3.284c-.604-.616-1.572-.616-2.175 0-.574.587-.612 1.52-.115 2.153l.115.13 4.301 4.397c.56.572 1.435.613 2.04.122l.135-.123 8.602-8.79c.615-.63.615-1.656 0-2.285z" transform="translate(7)"/>
        </g>
    </g>
</svg>
