<svg xmlns="http://www.w3.org/2000/svg" width="250" height="250" viewBox="0 0 250 250">
    <defs>
        <linearGradient id="5su9c9x1ja" x1="88.279%" x2="1.499%" y1="51.072%" y2="49.422%">
            <stop offset="0%" stop-color="#1B70F0"/>
            <stop offset="100%" stop-color="#7AACF9"/>
        </linearGradient>
        <linearGradient id="3ytf8g9rzb" x1="69.428%" x2="25.384%" y1="86.264%" y2="30.436%">
            <stop offset="0%" stop-color="#1B70F0"/>
            <stop offset="100%" stop-color="#7AACF9"/>
        </linearGradient>
    </defs>
    <g fill="none" fill-rule="evenodd">
        <g>
            <g transform="translate(1 13) translate(.527)">
                <path fill="#0047B2" fill-rule="nonzero" d="M75.405 190.876H121.75V210.817H75.405z"/>
                <path fill="#1469E9" fill-rule="nonzero" d="M143.423 220.748c0 1.351-1.106 2.457-2.457 2.457H56.187c-1.35 0-2.456-1.106-2.456-2.457v-7.964c0-1.35 1.106-2.456 2.456-2.456h84.78c1.35 0 2.456 1.105 2.456 2.456v7.964z"/>
                <path fill="#0047B2" fill-rule="nonzero" d="M63.478 220.748v-7.964c0-1.35 1.105-2.456 2.456-2.456h-9.747c-1.35 0-2.456 1.105-2.456 2.456v7.964c0 1.351 1.106 2.457 2.456 2.457h9.747c-1.35 0-2.456-1.106-2.456-2.457z"/>
                <path fill="url(#5su9c9x1ja)" d="M167.957 162.57H.462v23.887c0 2.702 2.21 4.913 4.912 4.913h162.583v-28.8z"/>
                <path fill="#0047B2" fill-rule="nonzero" d="M10.209 186.457V162.57H.462v23.886c0 2.702 2.21 4.913 4.912 4.913h9.746c-2.7 0-4.911-2.21-4.911-4.913z"/>
                <path fill="#6DA7FF" fill-rule="nonzero" d="M191.975 51.715h-19.637v53.68c-2.544.009-4.612 2.088-4.612 4.644v43.586H23.778V51.715h-18.6c-2.593 0-4.716 2.123-4.716 4.718v106.629h167.495v-53.023c0-2.562 2.084-4.646 4.645-4.646h24.089v-48.96c0-2.595-2.122-4.718-4.716-4.718z"/>
                <g fill="#0047B2" fill-rule="nonzero">
                    <path d="M13.954.228H2.528C1.178.228.072 1.333.072 2.685v87.56c0 1.352 1.105 2.457 2.456 2.457h11.426V.228zM174.978.228h-12.463v44.255c.088-.005.174-.013.263-.013h14.656V2.685c0-1.352-1.106-2.457-2.456-2.457z" transform="translate(9.824 60.923)"/>
                </g>
                <path fill="#0047B2" fill-rule="nonzero" d="M19.643 151.169V63.608c0-1.351 1.105-2.457 2.456-2.457h-9.747c-1.35 0-2.456 1.106-2.456 2.457v87.56c0 1.352 1.106 2.457 2.456 2.457H22.1c-1.35 0-2.456-1.105-2.456-2.456z"/>
                <ellipse cx="98.576" cy="177.37" fill="#1469E9" fill-rule="nonzero" rx="5.97" ry="5.971"/>
                <path fill="#C2DAFF" fill-rule="nonzero" d="M77.708 32.188c0-1.203.984-2.187 2.187-2.187h56.394V2.587c0-1.423-1.164-2.587-2.586-2.587H26.119c-1.423 0-2.587 1.164-2.587 2.587v151.038h54.176V32.188z"/>
                <path fill="#9FC5FF" fill-rule="nonzero" d="M35.865 0H26.12c-1.423 0-2.587 1.164-2.587 2.587v151.038h9.747V2.587C33.28 1.164 34.443 0 35.865 0z"/>
                <path fill="#FFF" fill-rule="nonzero" d="M167.957 110.039c0-2.556 2.075-4.636 4.627-4.645V31.696c0-1.202-.984-2.187-2.186-2.187H79.404c-1.203 0-2.188.985-2.188 2.187v121.93h90.74v-43.587h.001z"/>
                <path fill="#D9E8FF" fill-rule="nonzero" d="M89.15 29.51h-9.746c-1.203 0-2.188.984-2.188 2.186v121.93h9.747V31.695c0-1.202.985-2.187 2.188-2.187z"/>
                <path fill="#2277F7" fill-rule="nonzero" d="M98.693 69.62c-.533 0-1.04-.238-1.392-.655l-2.96-3.506c-.674-.797-.597-2.009.173-2.707.768-.697 1.938-.617 2.611.18l1.568 1.857 2.494-2.953c.673-.797 1.842-.878 2.612-.18.769.699.846 1.91.173 2.708l-3.886 4.601c-.351.416-.859.655-1.393.655zM98.693 90.717c-.533 0-1.04-.238-1.392-.654l-2.96-3.506c-.674-.798-.597-2.01.173-2.708.768-.697 1.938-.617 2.611.18l1.568 1.857 2.494-2.953c.673-.797 1.842-.877 2.612-.18.769.699.846 1.91.173 2.708l-3.886 4.602c-.351.415-.859.654-1.393.654zM98.693 112.87c-.533 0-1.04-.24-1.392-.656l-2.96-3.506c-.674-.797-.597-2.009.173-2.707.768-.698 1.938-.617 2.611.18l1.568 1.857 2.494-2.953c.673-.797 1.842-.878 2.612-.18.769.698.846 1.91.173 2.708l-3.886 4.601c-.351.416-.859.655-1.393.655z"/>
                <g fill="#70A9FF" fill-rule="nonzero">
                    <path d="M43.141 7.37H3.684C1.65 7.37 0 5.72 0 3.685 0 1.649 1.65 0 3.684 0h39.457c2.035 0 3.684 1.65 3.684 3.685s-1.65 3.685-3.684 3.685z" transform="translate(111.85 61.906)"/>
                </g>
                <g fill="#70A9FF" fill-rule="nonzero">
                    <path d="M43.583 8.115H4.126C2.092 8.115.442 6.465.442 4.43c0-2.036 1.65-3.685 3.684-3.685h39.457c2.035 0 3.684 1.65 3.684 3.685s-1.649 3.685-3.684 3.685z" transform="translate(111.814 82.278)"/>
                </g>
                <g fill="#70A9FF" fill-rule="nonzero">
                    <path d="M29.08 7.396H4.126C2.09 7.396.442 5.746.442 3.711S2.092.027 4.126.027H29.08c2.034 0 3.684 1.649 3.684 3.684 0 2.036-1.65 3.685-3.684 3.685z" transform="translate(111.814 104.43)"/>
                </g>
                <g fill="#1469E9" fill-rule="nonzero">
                    <path d="M61.2 7.948H6.034c-2.826 0-5.117-1.65-5.117-3.685 0-2.036 2.29-3.685 5.117-3.685H61.2c2.826 0 5.118 1.65 5.118 3.685S64.026 7.948 61.2 7.948z" transform="translate(92.965 39.955)"/>
                </g>
                <path fill="#AEC1ED" fill-rule="nonzero" d="M228.838 218.068c0 2.825-2.311 5.137-5.136 5.137h-51.1c-2.825 0-5.136-2.312-5.136-5.137V110.039c0-2.826 2.311-5.137 5.136-5.137h51.1c2.825 0 5.136 2.311 5.136 5.137v108.029z"/>
                <path fill="#85A0DD" fill-rule="nonzero" d="M177.213 218.068V110.039c0-2.826 2.31-5.137 5.136-5.137h-9.747c-2.825 0-5.136 2.311-5.136 5.137v108.029c0 2.825 2.311 5.137 5.136 5.137h9.747c-2.825 0-5.136-2.312-5.136-5.137z"/>
                <path fill="#445EA0" fill-rule="nonzero" d="M187.88 202.987v5.79c0 1.352 1.105 2.457 2.456 2.457h15.632c1.35 0 2.456-1.105 2.456-2.456v-5.79H187.88z"/>
                <path fill="#91E0E8" fill-rule="nonzero" d="M167.468 121.547H228.83999999999997V203.47899999999998H167.468z"/>
                <path fill="#5DC1D8" fill-rule="nonzero" d="M167.468 121.547H177.21499999999997V203.47899999999998H167.468z"/>
                <path fill="#445EA0" fill-rule="nonzero" d="M206.883 116.8h-17.462c-2.035 0-3.684-1.65-3.684-3.685s1.649-3.685 3.684-3.685h17.462c2.035 0 3.684 1.65 3.684 3.685 0 2.036-1.65 3.685-3.684 3.685z"/>
                <g fill="#EEF6FF" fill-rule="nonzero">
                    <path d="M46.178 19.949c0 1.351-1.105 2.456-2.456 2.456H2.923c-1.35 0-2.456-1.105-2.456-2.456V2.773c0-1.35 1.105-2.456 2.456-2.456h40.799c1.35 0 2.456 1.105 2.456 2.456V19.95zM34.293 34.557H4.237c-2.034 0-3.684-1.65-3.684-3.685s1.65-3.685 3.684-3.685h30.056c2.035 0 3.684 1.65 3.684 3.685s-1.65 3.685-3.684 3.685zM34.293 45.423H4.237c-2.034 0-3.684-1.65-3.684-3.685 0-2.036 1.65-3.685 3.684-3.685h30.056c2.035 0 3.684 1.65 3.684 3.685s-1.65 3.685-3.684 3.685zM34.293 56.288H4.237c-2.034 0-3.684-1.65-3.684-3.685s1.65-3.685 3.684-3.685h30.056c2.035 0 3.684 1.65 3.684 3.685s-1.65 3.685-3.684 3.685z" transform="translate(174.87 128.725)"/>
                </g>
                <g fill="#D9EAFC" fill-rule="nonzero">
                    <path d="M10.214 19.949V2.773c0-1.35 1.105-2.456 2.456-2.456H2.924C1.573.317.468 1.422.468 2.773V19.95c0 1.351 1.105 2.456 2.456 2.456h9.746c-1.35 0-2.456-1.105-2.456-2.456zM10.3 30.872c0-2.035 1.65-3.685 3.684-3.685H4.237c-2.034 0-3.684 1.65-3.684 3.685 0 2.036 1.65 3.685 3.684 3.685h9.747c-2.035 0-3.684-1.65-3.684-3.685zM10.3 41.738c0-2.036 1.65-3.685 3.684-3.685H4.237c-2.034 0-3.684 1.65-3.684 3.685s1.65 3.685 3.684 3.685h9.747c-2.035 0-3.684-1.65-3.684-3.685zM10.3 52.603c0-2.035 1.65-3.685 3.684-3.685H4.237c-2.034 0-3.684 1.65-3.684 3.685s1.65 3.685 3.684 3.685h9.747c-2.035 0-3.684-1.65-3.684-3.685z" transform="translate(174.87 128.725)"/>
                </g>
                <path fill="#FFF" fill-rule="nonzero" d="M127.744 20.144c0 1.351-1.106 2.457-2.456 2.457h-88.91c-1.35 0-2.455-1.106-2.455-2.457v-6.878c0-1.352 1.105-2.457 2.456-2.457h88.909c1.35 0 2.456 1.105 2.456 2.457v6.878z"/>
            </g>
            <g>
                <path fill="#0047B2" fill-rule="nonzero" d="M12.174 0l27.7 102.343H.632v-91.43C.633 4.887 6.264 0 12.174 0z" transform="translate(1 13) translate(161.92 103.376)"/>
                <path fill="#156AEA" fill-rule="nonzero" d="M86.709 1.836v90.44l-29.114 3.67L79.43 0h5.46c1.004 0 1.819.822 1.819 1.836z" transform="translate(1 13) translate(161.92 103.376)"/>
                <path fill="url(#3ytf8g9rzb)" d="M80.38 0L80.38 95.947 12.025 95.947 12.025 0 62.517 0 67.876 7.343 73.235 0z" transform="translate(1 13) translate(161.92 103.376)"/>
                <path fill="#0047B2" fill-rule="nonzero" d="M86.709 113.217v5.277c0 .972-.78 1.76-1.74 1.76h-5.222l-6.962-14.073 13.924 7.036zM86.709 92.109v7.036c-.844-.696-1.618-.868-2.32-.516-.704.351-4.572 2.869-11.604 7.552l6.962-14.072h6.962z" transform="translate(1 13) translate(161.92 103.376)"/>
                <path fill="#156AEA" fill-rule="nonzero" d="M11.442 92.109c-5.969 0-10.81 4.726-10.81 10.554v7.036c0 5.828 4.841 10.554 10.81 10.554h50.923l5.404-3.518 5.405 3.518h7.206V92.11H11.442z" transform="translate(1 13) translate(161.92 103.376)"/>
                <path fill="#D9E8FF" fill-rule="nonzero" d="M85.021 112.577H10.84c-2.14 0-3.877-1.528-3.877-3.411v-3.411l3.877-3.412h67.09l3.877 3.412c0 2.47 1.072 4.937 3.215 6.822z" transform="translate(1 13) translate(161.92 103.376)"/>
                <path fill="#EBF3FF" fill-rule="nonzero" d="M10.84 98.505H85.02c-2.143 2.121-3.215 4.897-3.215 7.676H6.962v-3.838c0-2.118 1.737-3.838 3.877-3.838z" transform="translate(1 13) translate(161.92 103.376)"/>
                <path fill="#0047B2" fill-rule="nonzero" d="M62.658 91.597L62.658 120.253 72.785 120.253 72.785 91.597 67.722 84.433z" transform="translate(1 13) translate(161.92 103.376)"/>
                <path fill="#0F64E4" fill-rule="nonzero" d="M62.658 0L72.785 0 72.785 92.109 62.658 92.109z" transform="translate(1 13) translate(161.92 103.376)"/>
            </g>
        </g>
    </g>
</svg>
