<svg xmlns="http://www.w3.org/2000/svg" width="75" height="75" viewBox="0 0 75 75">
    <defs>
        <linearGradient id="a04i8tj1ca" x1="116.157%" x2="-9.635%" y1="50%" y2="50%">
            <stop offset="0%" stop-color="#96C6FF"/>
            <stop offset="100%" stop-color="#F3F8FF"/>
        </linearGradient>
        <linearGradient id="92xy1mv5rb" x1="74.342%" x2="0%" y1="50%" y2="50%">
            <stop offset="0%" stop-color="#96C6FF"/>
            <stop offset="100%" stop-color="#F3F8FF"/>
        </linearGradient>
    </defs>
    <g fill="none" fill-rule="evenodd">
        <g transform="translate(0 5)">
            <g>
                <path fill="#B4D2FF" fill-rule="nonzero" d="M0 56.99V1.65C0 .814.676.137 1.51.137h71.98c.834 0 1.51.677 1.51 1.513v55.34c0 .836-.676 1.514-1.51 1.514H1.51c-.834 0-1.51-.678-1.51-1.513z"/>
                <path fill="url(#a04i8tj1ca)" d="M4.63 53.873L70.37 53.873 70.37 4.768 4.63 4.768z"/>
                <g fill="#8BBAFF" fill-rule="nonzero">
                    <path d="M1.171 2.39h39.017c.625 0 1.131-.509 1.131-1.135 0-.627-.506-1.135-1.131-1.135H1.17C.546.12.04.628.04 1.255c0 .626.506 1.134 1.131 1.134zM49.08 7.022H1.171C.546 7.022.04 7.53.04 8.157S.546 9.292 1.17 9.292h47.91c.624 0 1.131-.508 1.131-1.135s-.507-1.135-1.132-1.135zM28.39 13.925H1.172c-.625 0-1.131.508-1.131 1.134 0 .627.506 1.135 1.131 1.135h27.22c.625 0 1.132-.508 1.132-1.135 0-.626-.507-1.134-1.132-1.134z" transform="translate(12.374 13.013)"/>
                </g>
                <path fill="#6AA5FF" fill-rule="nonzero" d="M32.798 43.878c-1.921.005-3.842.01-5.763.013l-1.851.002c-.473 0-.982.084-1.381-.222-.447-.342-.6-.825-.703-1.357-.22-1.152-1.878-1.005-2.182 0-.135.446-.814 1.72-1.407 1.616-.314-.055-.452-.541-.568-.793-.226-.49-.39-1.01-.532-1.53-.596-2.2-.715-4.495-1.087-6.736-.216-1.3-2.192-.932-2.223.302-.102 3.93-.743 7.805-2.138 11.489-.518 1.366 1.67 1.957 2.183.603.538-1.42.965-2.874 1.296-4.35.178.537.39 1.065.649 1.578.66 1.31 2.009 2.085 3.451 1.502.515-.208.985-.571 1.384-1.014.057.066.114.13.173.19 1.098 1.111 2.542.992 3.977.99 2.241-.002 4.481-.008 6.722-.014 1.456-.004 1.459-2.273 0-2.27z"/>
            </g>
            <path fill="#1B70F0" fill-rule="nonzero" d="M57.855 64.776L54.611 63.263 51.366 64.776 51.366 45.257 57.855 45.257z"/>
            <path fill="#3384FF" fill-rule="nonzero" d="M54.61 49.03c-1.144 0-1.894-1.954-2.89-2.369-1.031-.43-2.933.403-3.711-.378-.778-.782.051-2.692-.377-3.729-.412-1-2.358-1.753-2.358-2.903 0-1.15 1.946-1.903 2.358-2.903.428-1.037-.4-2.947.377-3.729.778-.78 2.68.052 3.712-.378.995-.415 1.745-2.369 2.89-2.369s1.894 1.954 2.89 2.37c1.032.43 2.934-.404 3.712.377.777.782-.052 2.692.376 3.729.413 1 2.358 1.753 2.358 2.903 0 1.15-1.945 1.903-2.358 2.903-.428 1.037.401 2.948-.376 3.729-.778.781-2.68-.052-3.712.378-.996.415-1.745 2.369-2.89 2.369z"/>
            <path fill="#1B70F0" fill-rule="nonzero" d="M61.59 36.748c-.429-1.037.4-2.947-.377-3.729-.778-.78-2.68.052-3.712-.378-.996-.415-1.745-2.369-2.89-2.369s-1.895 1.954-2.89 2.37c-.042.016-.085.03-.128.044 1.054.32 2.837-.417 3.583.333.778.782-.051 2.692.377 3.729.413 1 2.358 1.753 2.358 2.903 0 1.15-1.945 1.903-2.358 2.903-.428 1.037.401 2.948-.377 3.729-.746.75-2.529.013-3.583.333.043.014.086.028.128.045.995.415 1.745 2.369 2.89 2.369s1.894-1.954 2.89-2.369c1.032-.43 2.934.403 3.712-.378.777-.781-.052-2.692.376-3.729.413-1 2.358-1.753 2.358-2.903 0-1.15-1.945-1.903-2.358-2.903z"/>
            <ellipse cx="54.611" cy="39.651" fill="url(#92xy1mv5rb)" rx="3.289" ry="3.298"/>
        </g>
    </g>
</svg>
