<svg xmlns="http://www.w3.org/2000/svg" width="75" height="75" viewBox="0 0 75 75">
    <g fill="none" fill-rule="evenodd">
        <g fill-rule="nonzero">
            <g>
                <path fill="#E1EDFF" d="M71.396 68.633H15.592c-6 0-10.863-4.834-10.863-10.798v-2.07c0-5.964 4.864-10.798 10.863-10.798h55.804v23.666z" transform="translate(0 2)"/>
                <path fill="#0F64E4" d="M7.11 47.333H13.062000000000001V66.26599999999999H7.11z" transform="translate(0 2)"/>
                <path fill="#E1EDFF" d="M65.741 41.417H2.348V24.85h63.393c1.808 0 3.274 1.457 3.274 3.254v10.059c0 1.797-1.466 3.254-3.274 3.254zM10.682 3.55H71.396V21.3H10.682z" transform="translate(0 2)"/>
                <path fill="#3E8BFF" d="M71.429 71H16.667C8.79 71 2.38 64.63 2.38 56.8c0-7.83 6.409-14.2 14.286-14.2h54.762c1.314 0 2.38 1.06 2.38 2.367s-1.066 2.366-2.38 2.366H16.667c-5.252 0-9.524 4.247-9.524 9.467 0 5.22 4.272 9.467 9.524 9.467h54.762c1.314 0 2.38 1.06 2.38 2.366 0 1.307-1.066 2.367-2.38 2.367z" transform="translate(0 2)"/>
                <path fill="#3E8BFF" d="M64.286 42.6H1.19C.532 42.6 0 42.07 0 41.417c0-.654.532-1.184 1.19-1.184h63.096c1.97 0 3.571-1.592 3.571-3.55v-7.1c0-1.957-1.602-3.55-3.571-3.55H1.19c-.658 0-1.19-.529-1.19-1.183s.532-1.183 1.19-1.183h63.096c3.282 0 5.952 2.654 5.952 5.916v7.1c0 3.263-2.67 5.917-5.952 5.917z" transform="translate(0 2)"/>
                <path fill="#A7CAFF" d="M71.396 9.467H16.634c-.657 0-1.19-.53-1.19-1.184 0-.653.533-1.183 1.19-1.183h54.762v2.367zM71.396 14.2H16.634c-.657 0-1.19-.53-1.19-1.183 0-.654.533-1.184 1.19-1.184h54.762V14.2zM71.396 18.933H16.634c-.657 0-1.19-.53-1.19-1.183s.533-1.183 1.19-1.183h54.762v2.366zM2.348 28.4h61.905c.658 0 1.19.53 1.19 1.183 0 .654-.532 1.184-1.19 1.184H2.348V28.4zM2.348 33.133h61.905c.658 0 1.19.53 1.19 1.184 0 .653-.532 1.183-1.19 1.183H2.348v-2.367zM2.348 37.867h61.905c.658 0 1.19.53 1.19 1.183s-.532 1.183-1.19 1.183H2.348v-2.366z" transform="translate(0 2)"/>
                <path fill="#3B89FF" d="M72.619 23.667H15.476c-3.939 0-7.143-3.185-7.143-7.1V7.1c0-3.915 3.204-7.1 7.143-7.1H72.62C73.934 0 75 1.06 75 2.367s-1.066 2.366-2.381 2.366H15.476c-1.313 0-2.38 1.062-2.38 2.367v9.467c0 1.304 1.067 2.366 2.38 2.366H72.62c1.315 0 2.381 1.06 2.381 2.367s-1.066 2.367-2.381 2.367z" transform="translate(0 2)"/>
                <path fill="#A7CAFF" d="M16.634 63.9c-.658 0-1.19.53-1.19 1.183 0 .654.532 1.184 1.19 1.184h54.762V63.9H16.634zM16.634 59.167c-.658 0-1.19.529-1.19 1.183s.532 1.183 1.19 1.183h54.762v-2.366H16.634zM16.634 54.433c-.658 0-1.19.53-1.19 1.184 0 .654.532 1.183 1.19 1.183h54.762v-2.367H16.634zM16.634 49.7c-.658 0-1.19.53-1.19 1.183 0 .654.532 1.184 1.19 1.184h54.762V49.7H16.634z" transform="translate(0 2)"/>
            </g>
        </g>
    </g>
</svg>
