<svg xmlns="http://www.w3.org/2000/svg" width="75" height="75" viewBox="0 0 75 75">
    <defs>
        <linearGradient id="mthvnf7lka" x1="74.342%" x2="0%" y1="50%" y2="50%">
            <stop offset="0%" stop-color="#96C6FF"/>
            <stop offset="100%" stop-color="#F3F8FF"/>
        </linearGradient>
    </defs>
    <g fill="none" fill-rule="evenodd">
        <g>
            <path fill="#1B70F0" fill-rule="nonzero" d="M44.609 28.457l1.793-1.597C52.64.111 33.522 2.934 33.522 2.934s-5.77-5.05-16.147-1.899C7.243 4.112 6.385 10.971.522 14.431c-.466.275-.524.92-.105 1.26.89.725 2.558 1.692 5.12 1.7-.161 2.775.11 5.912.883 9.435l1.786 1.63H44.61z" transform="translate(12)"/>
            <path fill="#0049B8" fill-rule="nonzero" d="M11.22 22.94c-2.372 0-4.35 1.669-4.8 3.886.118.535.246 1.078.387 1.63h4.919v-5.49c-.167-.018-.336-.027-.507-.027zM46.009 28.456c.14-.544.27-1.075.392-1.596-.437-2.234-2.421-3.92-4.805-3.92-.17 0-.34.008-.506.025v5.491h4.919z" transform="translate(12)"/>
            <path fill="#C5DCFF" fill-rule="nonzero" d="M11.726 31.564v-5.827c-.167-.017-.336-.026-.507-.026-2.217 0-4.09 1.46-4.692 3.462-.132.44 1.989 4.848 4.692 4.848l.544-1.417c-.025-.343-.037-.69-.037-1.04z" transform="translate(12)"/>
            <path fill="#ADCEFF" fill-rule="nonzero" d="M11.22 32.635c-2.218 0-4.09-1.46-4.692-3.462-.132.44-.204.904-.204 1.386 0 2.677 2.192 4.848 4.895 4.848.342 0 .676-.035.998-.101l1.11-1.33-1.563-1.372c-.18.02-.36.03-.545.03z" transform="translate(12)"/>
            <path fill="url(#mthvnf7lka)" d="M48.465 73.614H4.35l-1.4-1.386V62.63c0-9.893 8.1-17.913 18.09-17.913h10.735c9.99 0 18.09 8.02 18.09 17.913v9.598l-1.4 1.386z" transform="translate(12)"/>
            <path fill="#7FB2FF" fill-rule="nonzero" d="M3.728 75h7.323l1.167-1.386L13.384 75h26.048l1.166-1.386L41.764 75h7.323c.43 0 .778-.345.778-.77v-2.002H2.951v2.002c0 .425.348.77.777.77z" transform="translate(12)"/>
            <path fill="#5297FF" fill-rule="nonzero" d="M23.686 51.308L26.407 49.922 29.129 51.308 31.205 62.578 30.637 64.532 26.408 68.763 22.209 64.564 21.609 62.578z" transform="translate(12)"/>
            <path fill="#3384FF" fill-rule="nonzero" d="M25.855 66.825l-4.246-4.247-.358 1.946c-.046.247.034.501.212.68l4.392 4.393c.304.304.801.304 1.106 0l4.39-4.393c.18-.179.258-.433.213-.68l-.359-1.946-4.245 4.247c-.304.304-.8.304-1.105 0zM29.129 51.308L23.686 51.308 21.101 44.717 31.714 44.717z" transform="translate(12)"/>
            <path fill="#C5DCFF" fill-rule="nonzero" d="M41.09 31.564v-5.827c.166-.017.335-.026.506-.026 2.217 0 4.09 1.46 4.693 3.462.132.44-1.99 4.848-4.693 4.848l-.543-1.417c.025-.343.037-.69.037-1.04z" transform="translate(12)"/>
            <path fill="#ADCEFF" fill-rule="nonzero" d="M41.596 32.635c2.217 0 4.09-1.46 4.692-3.462.132.44.204.904.204 1.386 0 2.677-2.192 4.848-4.896 4.848-.342 0-.676-.035-.998-.101l-1.11-1.33 1.564-1.372c.179.02.36.03.544.03z" transform="translate(12)"/>
            <path fill="#DAE9FF" fill-rule="nonzero" d="M31.287 11.782c-5.548 6.147-16.145 8.01-18.896 8.401-.383.055-.665.38-.665.762v9.233c0 8.03 6.573 14.539 14.682 14.539 8.108 0 14.682-6.51 14.682-14.54v-9.132c0-.306-.182-.583-.465-.705-1.38-.596-5.516-2.779-8.056-8.354-.229-.504-.91-.615-1.282-.204z" transform="translate(12)"/>
            <path fill="#C5DCFF" fill-rule="nonzero" d="M26.408 43.33c-8.109 0-14.682-6.509-14.682-14.538v2.772c0 8.03 6.573 14.539 14.682 14.539 8.108 0 14.682-6.51 14.682-14.539v-2.772c0 8.03-6.573 14.539-14.682 14.539z" transform="translate(12)"/>
            <path fill="#5C9DFF" fill-rule="nonzero" d="M13.384 72.228v-7.383c0-.638-.522-1.155-1.167-1.155-.644 0-1.166.517-1.166 1.155v7.383l1.166 1.386 1.167-1.386z" transform="translate(12)"/>
            <path fill="#5C9DFF" fill-rule="nonzero" d="M11.051 72.228L13.384 72.228 13.384 75 11.051 75zM41.764 72.228v-7.383c0-.638-.522-1.155-1.166-1.155-.644 0-1.166.517-1.166 1.155v7.383l1.166 1.386 1.166-1.386z" transform="translate(12)"/>
            <path fill="#5C9DFF" fill-rule="nonzero" d="M39.432 72.228L41.764 72.228 41.764 75 39.432 75z" transform="translate(12)"/>
        </g>
    </g>
</svg>
