<svg xmlns="http://www.w3.org/2000/svg" width="55" height="55" viewBox="0 0 55 55">
    <g fill="none" fill-rule="evenodd">
        <g fill="#F0F5F9">
            <path d="M12.334 49.62c3.204 0 5.9-1.132 8.09-3.397 2.188-2.266 3.283-5.084 3.283-8.456 0-3.055-.988-5.61-2.963-7.665-1.976-2.055-4.512-3.24-7.61-3.556.962-4.215 3.044-8.008 6.248-11.38 1.068-1.158 1.602-2.37 1.602-3.634 0-1.475-.614-2.766-1.842-3.873C17.914 6.553 16.552 6 15.057 6c-1.709 0-3.204.685-4.485 2.055C3.524 15.535 0 24.228 0 34.132c0 5.058 1.148 8.903 3.444 11.538 2.296 2.634 5.26 3.95 8.89 3.95zm31.293 0c3.204 0 5.9-1.132 8.09-3.397C53.904 43.957 55 41.139 55 37.767c0-3.055-.988-5.61-2.963-7.665-1.976-2.055-4.512-3.24-7.609-3.556.961-4.215 3.043-8.008 6.247-11.38 1.068-1.158 1.602-2.37 1.602-3.634 0-1.475-.614-2.766-1.842-3.873C49.207 6.553 47.845 6 46.35 6c-1.708 0-3.203.685-4.485 2.055-7.048 7.48-10.572 16.173-10.572 26.077 0 5.058 1.148 8.903 3.444 11.538 2.296 2.634 5.26 3.95 8.89 3.95z"/>
        </g>
    </g>
</svg>
